<?xml version="1.0" standalone="no"?>
<!DOCTYPE svg PUBLIC "-//W3C//DTD SVG 20010904//EN"
 "http://www.w3.org/TR/2001/REC-SVG-20010904/DTD/svg10.dtd">
<svg version="1.0" xmlns="http://www.w3.org/2000/svg"
 width="300.000000pt" height="300.000000pt" viewBox="0 0 300.000000 300.000000"
 preserveAspectRatio="xMidYMid meet">
<metadata>
Created by potrace 1.10, written by Peter Selinger 2001-2011
</metadata>
<g transform="translate(0.000000,300.000000) scale(0.100000,-0.100000)"
fill="#000000" stroke="none">
<path d="M1456 2914 c-19 -18 -21 -65 -4 -82 20 -20 65 -14 82 10 21 30 20 44
-4 68 -24 24 -53 26 -74 4z"/>
<path d="M1295 2803 c-12 -11 -15 -24 -10 -42 4 -14 10 -55 13 -91 6 -56 10
-65 27 -65 18 0 21 9 26 70 4 39 10 80 14 91 5 16 1 26 -16 38 -29 20 -34 20
-54 -1z"/>
<path d="M1629 2799 c-14 -14 -18 -26 -13 -37 4 -9 10 -48 12 -85 3 -50 8 -70
19 -74 26 -10 41 22 35 76 -2 30 0 51 7 55 19 12 13 64 -8 76 -26 14 -28 13
-52 -11z"/>
<path d="M419 2713 c-83 -43 -138 -105 -165 -187 -19 -57 -29 -436 -13 -497
13 -53 70 -68 109 -29 19 19 20 33 20 203 0 223 9 257 85 334 79 79 102 83
436 83 276 0 278 0 293 22 20 28 20 58 0 86 -15 22 -15 22 -354 22 l-339 0
-72 -37z m725 -8 c19 -19 12 -41 -15 -48 -11 -3 -135 -6 -276 -6 -142 -1 -273
-6 -293 -11 -86 -23 -159 -90 -201 -186 -20 -43 -23 -71 -27 -234 -2 -102 -8
-189 -12 -193 -4 -5 -18 -6 -30 -2 -21 7 -21 8 -18 238 3 217 4 235 25 277 43
87 118 152 198 171 16 4 166 7 332 8 258 1 304 -1 317 -14z"/>
<path d="M1806 2735 c-21 -22 -21 -78 2 -98 14 -13 59 -16 307 -19 269 -3 293
-4 335 -24 67 -31 106 -68 137 -132 27 -56 28 -62 31 -252 4 -216 8 -230 67
-230 62 0 65 10 65 268 0 212 -2 236 -21 289 -26 69 -89 139 -161 179 l-53 29
-346 3 c-309 3 -348 1 -363 -13z m738 -50 c62 -31 122 -92 152 -153 16 -32 19
-67 22 -254 3 -219 -2 -258 -33 -258 -28 0 -34 37 -34 211 0 164 -2 179 -25
231 -39 88 -133 166 -221 184 -11 2 -139 4 -285 5 -160 1 -270 5 -277 11 -7 6
-13 19 -13 28 0 10 6 21 13 24 6 3 154 4 327 3 l315 -2 59 -30z"/>
<path d="M1463 2680 c-44 -18 -55 -72 -23 -113 18 -23 20 -40 20 -215 0 -182
1 -191 20 -197 11 -3 24 -3 30 0 6 4 10 80 10 199 0 180 1 194 20 211 30 27
27 78 -6 104 -29 23 -38 24 -71 11z m44 -56 c8 -21 -13 -42 -28 -27 -13 13 -5
43 11 43 6 0 13 -7 17 -16z"/>
<path d="M815 2538 c-49 -27 -70 -91 -45 -139 14 -26 68 -52 93 -45 29 7 67
-30 67 -65 0 -19 6 -30 20 -34 23 -7 36 -1 50 25 9 17 4 27 -31 65 -32 35 -39
49 -31 57 15 15 16 73 2 99 -12 22 -61 49 -87 49 -10 0 -27 -6 -38 -12z m83
-91 c6 -52 -72 -61 -84 -10 -5 20 -2 31 16 45 20 16 25 17 44 5 12 -8 22 -26
24 -40z"/>
<path d="M1663 2539 c-31 -11 -34 -32 -31 -224 l3 -170 25 0 25 0 3 142 c2
137 4 144 27 167 28 28 31 45 13 68 -18 21 -39 27 -65 17z"/>
<path d="M2078 2533 c-44 -28 -60 -82 -37 -125 9 -17 6 -26 -25 -57 -37 -38
-45 -68 -24 -89 29 -29 68 -2 68 46 0 28 24 44 70 46 44 3 72 23 90 67 33 78
-69 159 -142 112z m90 -76 c6 -51 -33 -74 -70 -40 -36 33 -14 76 37 71 25 -2
31 -8 33 -31z"/>
<path d="M2815 2494 c91 -88 151 -141 135 -121 -22 30 -160 161 -178 170 -9 5
10 -17 43 -49z"/>
<path d="M1055 2515 c-16 -15 -25 -36 -25 -55 0 -35 38 -80 68 -80 29 0 35
-24 32 -134 -2 -95 -1 -99 26 -127 15 -16 34 -29 41 -29 15 0 18 36 3 45 -6 4
-10 54 -10 118 0 80 -4 118 -14 133 -12 17 -12 22 0 39 34 46 -6 115 -66 115
-19 0 -40 -9 -55 -25z m80 -55 c0 -18 -6 -26 -23 -28 -24 -4 -38 18 -28 44 3
9 15 14 28 12 17 -2 23 -10 23 -28z"/>
<path d="M1261 2526 c-19 -23 -9 -70 17 -81 21 -9 22 -14 22 -157 0 -148 4
-163 38 -150 17 6 17 373 0 390 -17 17 -63 15 -77 -2z"/>
<path d="M1822 2520 c-30 -28 -38 -65 -19 -93 13 -20 13 -26 1 -42 -10 -13
-14 -51 -14 -130 0 -69 -4 -115 -11 -122 -15 -15 -4 -43 15 -43 8 0 24 13 35
29 18 25 21 44 21 129 0 112 4 132 30 132 9 0 29 9 44 21 20 16 26 29 26 59 0
68 -79 105 -128 60z m76 -58 c4 -28 -24 -40 -45 -19 -14 13 -14 19 -3 32 18
22 44 15 48 -13z"/>
<path d="M535 2455 c-54 -53 -14 -130 63 -123 36 3 45 -2 95 -49 52 -49 55
-55 50 -91 -5 -34 -1 -42 22 -60 15 -12 39 -22 52 -22 29 0 73 45 73 75 0 34
-37 75 -68 75 -33 0 -162 121 -162 152 0 27 -45 68 -75 68 -14 0 -37 -11 -50
-25z m73 -51 c2 -12 -4 -24 -12 -27 -19 -7 -40 18 -32 39 8 22 40 13 44 -12z
m227 -219 c0 -30 -39 -27 -43 3 -3 20 0 23 20 20 15 -2 23 -10 23 -23z"/>
<path d="M2353 2465 c-12 -9 -25 -31 -29 -50 -4 -25 -23 -49 -74 -94 -38 -34
-77 -61 -87 -61 -52 0 -84 -60 -59 -109 25 -47 79 -56 113 -18 26 29 32 47 23
72 -6 16 3 32 47 76 52 54 57 56 96 52 32 -4 48 0 66 14 35 28 33 79 -3 110
-31 27 -62 29 -93 8z m65 -61 c2 -12 -4 -24 -12 -27 -19 -7 -40 18 -32 39 8
22 40 13 44 -12z m-225 -206 c7 -21 -4 -38 -23 -38 -19 0 -34 25 -24 41 8 13
42 11 47 -3z"/>
<path d="M466 2228 c-13 -19 -14 -25 -2 -42 11 -17 25 -21 75 -22 67 -1 84
-12 75 -50 -4 -16 18 -43 106 -127 l111 -107 55 0 c52 0 55 2 52 23 -2 18 -11
23 -46 28 -38 5 -54 16 -133 95 -61 61 -89 96 -89 112 0 37 -52 82 -95 82 -20
0 -43 7 -51 15 -21 21 -40 19 -58 -7z"/>
<path d="M2458 2237 c-7 -8 -33 -16 -56 -20 -54 -7 -81 -30 -88 -77 -5 -31
-22 -52 -97 -121 -76 -70 -97 -85 -131 -89 -33 -4 -41 -9 -41 -25 0 -17 8 -20
53 -23 l53 -3 109 103 c94 89 109 107 110 135 0 41 20 52 85 48 27 -2 55 1 62
7 18 14 16 43 -3 62 -19 20 -38 20 -56 3z"/>
<path d="M1012 2223 c-39 -15 -32 -83 8 -83 15 0 20 -7 20 -28 0 -34 41 -77
64 -69 25 10 19 41 -13 71 -24 23 -28 33 -21 51 15 39 -20 74 -58 58z"/>
<path d="M1920 2215 c-7 -9 -10 -27 -7 -45 5 -24 1 -37 -23 -64 -32 -36 -32
-66 0 -66 24 0 50 32 50 64 0 19 7 29 24 36 33 12 43 46 20 71 -21 23 -47 25
-64 4z"/>
<path d="M888 2085 c-10 -23 -7 -29 48 -80 32 -30 64 -54 71 -55 7 0 17 9 23
20 10 18 6 25 -24 52 -20 18 -36 39 -36 48 0 44 -63 55 -82 15z"/>
<path d="M2015 2078 c-7 -18 -25 -44 -39 -57 -30 -28 -32 -43 -11 -61 13 -11
22 -8 53 22 20 20 47 41 60 47 41 22 23 81 -26 81 -17 0 -27 -9 -37 -32z"/>
<path d="M1359 2085 c-169 -41 -320 -159 -395 -308 -37 -72 -64 -189 -64 -276
0 -251 162 -477 402 -563 86 -30 284 -33 368 -4 160 54 282 158 348 297 51
107 66 172 66 284 0 163 -62 304 -188 422 -143 136 -351 193 -537 148z m269
-39 c202 -52 355 -202 407 -401 15 -59 20 -115 9 -115 -3 0 -33 29 -67 65 -66
69 -84 76 -110 47 -24 -27 -26 -171 -3 -206 9 -15 24 -26 32 -26 29 0 83 32
114 66 16 19 32 34 35 34 10 0 5 -77 -10 -135 -57 -223 -221 -380 -440 -422
-66 -13 -210 -6 -267 12 -76 25 -186 96 -245 158 -81 86 -138 214 -142 322
l-2 59 60 -57 c92 -88 131 -76 131 41 0 44 -5 65 -19 81 -18 20 -22 21 -66 10
-26 -6 -59 -24 -75 -40 -45 -45 -49 -10 -13 121 47 170 176 307 347 371 103
38 215 43 324 15z m320 -468 c33 -34 58 -66 55 -71 -5 -8 -108 -77 -115 -77
-2 0 -3 47 -3 105 0 58 1 105 2 105 0 0 28 -28 61 -62z m-848 -99 l0 -82 -57
53 c-32 30 -62 57 -66 60 -8 7 83 46 111 49 9 1 12 -21 12 -80z"/>
<path d="M1287 1820 c-73 -4 -91 -9 -103 -24 -11 -16 -14 -69 -15 -255 -1
-363 -3 -348 51 -367 35 -11 325 -6 374 7 48 12 114 50 136 76 78 93 105 174
94 277 -14 121 -75 209 -179 257 -51 23 -77 28 -165 31 -58 1 -145 1 -193 -2z
m314 -47 c80 -26 152 -99 174 -177 20 -68 16 -170 -8 -229 -23 -54 -82 -112
-140 -138 -47 -21 -69 -24 -238 -27 l-185 -4 0 296 1 296 171 0 c135 0 183 -4
225 -17z"/>
<path d="M1330 1494 c0 -157 2 -175 16 -170 9 3 60 6 113 6 111 0 148 16 185
79 30 51 27 139 -6 189 -39 58 -77 72 -202 72 l-106 0 0 -176z m249 110 c60
-50 63 -150 6 -206 -28 -29 -63 -38 -141 -38 -78 0 -83 9 -80 138 1 59 5 113
10 120 5 8 36 12 91 12 75 0 87 -3 114 -26z"/>
<path d="M473 2058 c-31 -15 -49 -62 -35 -94 22 -48 97 -51 121 -5 32 60 -27
127 -86 99z m46 -52 c9 -10 8 -16 -4 -26 -19 -16 -41 1 -32 24 8 20 21 20 36
2z"/>
<path d="M2459 2058 c-55 -18 -60 -97 -8 -123 66 -34 127 40 84 102 -18 26
-42 32 -76 21z m40 -52 c9 -10 8 -16 -4 -26 -19 -16 -41 1 -32 24 8 20 21 20
36 2z"/>
<path d="M636 1925 c-19 -20 -20 -26 -3 -49 26 -36 84 4 61 42 -15 23 -38 26
-58 7z"/>
<path d="M2290 1925 c-26 -32 13 -81 48 -59 34 22 22 74 -18 74 -10 0 -23 -7
-30 -15z"/>
<path d="M230 1860 c-23 -43 17 -83 59 -61 11 6 70 11 131 11 108 0 113 -1
154 -30 l42 -31 130 3 c125 3 129 4 132 26 3 22 2 22 -120 22 -123 0 -124 0
-158 30 -35 29 -35 29 -167 30 -77 0 -134 4 -138 10 -11 18 -54 11 -65 -10z"/>
<path d="M2685 1870 c-4 -6 -60 -10 -135 -10 -126 0 -129 -1 -161 -27 -31 -27
-39 -28 -158 -33 -118 -5 -126 -6 -126 -25 0 -19 8 -20 134 -23 l134 -3 38 31
c37 29 40 30 151 30 71 0 118 -4 125 -11 7 -7 23 -9 37 -5 30 7 45 48 26 71
-14 17 -56 20 -65 5z"/>
<path d="M77 1802 c-21 -24 -22 -56 -1 -77 24 -23 66 -15 83 16 13 24 13 29
-2 53 -21 31 -56 34 -80 8z"/>
<path d="M2836 1804 c-33 -32 -10 -94 35 -94 21 0 59 33 59 53 0 46 -62 73
-94 41z"/>
<path d="M227 1703 c-13 -12 -7 -60 8 -73 13 -11 21 -10 43 0 18 8 66 12 146
11 114 -2 120 -4 159 -32 40 -29 43 -30 151 -27 103 3 111 4 111 23 0 18 -8
20 -98 23 -95 3 -101 4 -150 39 l-52 35 -122 -5 c-72 -3 -125 -2 -128 4 -7 10
-58 12 -68 2z"/>
<path d="M2695 1700 c-4 -6 -59 -9 -139 -7 l-134 2 -45 -32 c-44 -32 -49 -33
-142 -33 -94 0 -96 0 -93 -22 3 -22 8 -23 111 -26 l107 -3 45 35 46 34 112 -3
c63 -2 124 -8 140 -16 25 -11 30 -10 49 9 19 18 20 25 10 47 -12 26 -54 35
-67 15z"/>
<path d="M327 1552 c-22 -25 -21 -75 1 -95 26 -24 79 -22 94 3 21 33 77 27
131 -15 l46 -35 119 0 c91 0 121 3 125 13 13 33 -9 41 -115 38 l-103 -2 -49
36 c-40 28 -59 35 -95 35 -35 0 -49 5 -59 20 -16 26 -73 27 -95 2z"/>
<path d="M2558 1550 c-10 -15 -24 -20 -59 -20 -36 0 -56 -7 -95 -35 -49 -35
-50 -35 -156 -35 l-108 0 0 -25 0 -25 121 0 120 0 46 35 c54 42 110 48 131 15
16 -26 73 -27 95 -2 22 25 21 75 -1 95 -26 24 -79 22 -94 -3z"/>
<path d="M82 1548 c-18 -18 -14 -63 8 -83 45 -40 109 20 75 71 -17 26 -62 33
-83 12z"/>
<path d="M2832 1548 c-19 -19 -14 -63 8 -83 46 -41 116 29 75 75 -20 22 -64
27 -83 8z"/>
<path d="M220 1381 c-14 -26 -13 -37 4 -54 12 -11 36 -13 111 -9 67 3 103 1
120 -8 53 -29 103 17 71 65 -19 28 -57 33 -76 10 -9 -11 -33 -15 -85 -15 -56
0 -74 4 -79 15 -8 22 -53 19 -66 -4z"/>
<path d="M2454 1375 c-24 -37 -6 -75 35 -75 16 0 33 5 37 11 4 7 42 10 113 8
58 -2 112 0 119 4 15 10 16 49 0 65 -16 16 -43 15 -58 -3 -9 -11 -33 -15 -90
-15 -60 0 -79 3 -84 15 -9 24 -54 18 -72 -10z"/>
<path d="M578 1255 l-55 -45 -111 0 c-63 0 -113 4 -117 10 -9 15 -51 12 -65
-5 -29 -35 21 -93 56 -64 10 8 52 11 138 10 l123 -2 51 40 51 41 111 0 c90 0
112 3 116 15 14 35 -14 45 -131 45 l-113 0 -54 -45z"/>
<path d="M2195 1293 c-78 -4 -98 -13 -88 -40 4 -10 32 -13 115 -13 l110 0 50
-40 51 -40 123 0 c82 0 131 -4 144 -12 39 -24 79 32 50 68 -14 16 -56 19 -65
4 -4 -6 -54 -10 -116 -10 l-110 0 -56 45 c-45 37 -61 45 -91 43 -21 -1 -73 -4
-117 -5z"/>
<path d="M648 1163 c-43 -10 -25 -76 20 -71 21 2 28 9 30 30 3 29 -20 48 -50
41z"/>
<path d="M2289 1144 c-17 -21 0 -48 34 -52 21 -3 28 2 33 22 3 14 3 30 -1 35
-10 16 -51 13 -66 -5z"/>
<path d="M795 1103 c-174 -160 -179 -165 -185 -207 l-5 -41 -64 0 c-53 0 -66
-3 -77 -20 -27 -41 35 -88 66 -50 7 9 29 15 50 15 30 0 44 6 64 31 14 17 26
42 26 56 0 19 21 46 87 107 77 72 91 82 132 86 41 4 46 8 46 30 0 23 -4 25
-50 28 -45 2 -54 -1 -90 -35z"/>
<path d="M2051 1126 c-21 -25 -2 -46 41 -46 36 0 48 -8 129 -82 49 -46 89 -91
89 -101 0 -27 27 -75 49 -87 11 -5 35 -10 54 -10 22 0 37 -6 41 -15 7 -18 47
-20 64 -3 29 29 -6 93 -40 72 -17 -11 -79 -5 -95 8 -7 6 -13 25 -13 43 0 28
-13 44 -112 133 -104 95 -114 102 -154 102 -23 0 -47 -6 -53 -14z"/>
<path d="M455 1075 c-30 -30 -31 -54 -4 -89 26 -33 70 -35 99 -4 27 29 25 69
-3 96 -30 29 -62 28 -92 -3z m71 -36 c8 -14 -21 -43 -35 -35 -19 12 -13 46 8
46 11 0 23 -5 27 -11z"/>
<path d="M2435 1075 c-30 -30 -31 -54 -4 -89 39 -50 119 -22 119 42 0 34 -37
72 -69 72 -12 0 -33 -11 -46 -25z m68 -39 c7 -17 -18 -40 -33 -31 -5 3 -10 15
-10 26 0 23 35 27 43 5z"/>
<path d="M960 1015 c-19 -19 -40 -35 -47 -35 -20 0 -35 -37 -23 -59 19 -36 66
-34 76 4 3 12 21 37 39 55 28 27 32 37 24 52 -14 26 -31 22 -69 -17z"/>
<path d="M1957 1043 c-14 -14 -6 -37 28 -77 72 -85 64 -79 88 -63 38 25 32 46
-25 97 -50 46 -76 59 -91 43z"/>
<path d="M259 1021 l-24 -19 0 -244 0 -243 33 -67 c38 -77 92 -130 171 -167
l56 -26 325 -3 c320 -3 326 -3 353 18 34 27 36 68 4 98 -23 21 -30 22 -298 22
-325 0 -344 4 -425 84 -76 76 -84 110 -84 337 l0 188 -26 20 c-33 26 -55 26
-85 2z m59 -33 c6 -8 12 -93 14 -198 3 -173 5 -188 29 -240 44 -96 105 -150
204 -183 16 -5 147 -11 290 -12 143 -1 270 -5 283 -9 28 -9 28 -31 -1 -50 -18
-12 -67 -15 -262 -15 -317 0 -394 9 -462 54 -59 39 -109 107 -129 173 -17 55
-20 443 -4 473 12 22 23 24 38 7z"/>
<path d="M2645 1026 c-19 -13 -20 -29 -25 -218 -6 -220 -12 -244 -69 -317 -16
-20 -53 -50 -83 -67 l-53 -29 -296 -5 c-329 -6 -329 -6 -329 -70 0 -73 -5 -72
371 -68 l334 3 56 26 c72 34 134 96 168 168 26 55 26 60 29 301 2 190 0 249
-10 262 -18 25 -69 33 -93 14z m62 -45 c19 -30 16 -394 -3 -467 -24 -92 -81
-158 -174 -202 -55 -26 -56 -26 -319 -27 -327 0 -375 3 -379 29 -2 10 1 23 6
28 6 6 121 11 278 13 148 1 283 6 299 10 78 20 154 80 200 159 29 50 36 102
38 309 2 119 5 150 17 157 21 13 24 13 37 -9z"/>
<path d="M1066 949 c-17 -13 -26 -30 -26 -49 0 -19 -6 -29 -19 -33 -31 -8 -43
-40 -25 -65 30 -44 74 -21 74 38 0 26 7 43 25 60 28 26 31 42 11 59 -10 8 -19
6 -40 -10z"/>
<path d="M1863 944 c-3 -9 6 -28 25 -47 24 -25 29 -38 25 -63 -6 -37 16 -59
51 -50 45 11 45 71 0 82 -18 5 -24 13 -24 34 0 46 -62 82 -77 44z"/>
<path d="M790 903 c-44 -16 -68 -81 -40 -109 6 -6 -12 -31 -54 -73 -39 -38
-66 -59 -70 -52 -4 6 -22 11 -41 11 -38 0 -75 -37 -75 -75 0 -37 37 -75 74
-75 37 0 76 34 76 66 0 21 127 154 147 154 25 0 61 23 72 47 16 35 14 49 -11
77 -25 26 -54 37 -78 29z m40 -59 c11 -12 11 -18 -2 -31 -19 -18 -38 -10 -38
16 0 33 20 40 40 15z m-222 -237 c4 -20 -25 -34 -40 -19 -15 15 -1 44 19 40
10 -2 19 -11 21 -21z"/>
<path d="M1151 879 c-22 -29 -23 -39 -19 -129 3 -54 1 -105 -4 -113 -4 -9 -22
-18 -38 -22 -60 -13 -80 -86 -35 -130 35 -36 89 -29 122 14 16 21 16 64 1 79
-10 10 -10 17 0 32 8 13 12 61 12 133 0 71 4 117 11 124 14 14 5 43 -14 43 -7
0 -24 -14 -36 -31z m-13 -336 c3 -22 -28 -40 -48 -28 -12 7 -13 38 -3 49 15
14 48 1 51 -21z"/>
<path d="M1773 894 c-3 -8 -1 -20 6 -27 7 -7 11 -54 11 -128 0 -91 3 -119 15
-129 13 -11 13 -15 0 -33 -22 -32 -18 -55 14 -88 35 -34 68 -37 105 -8 20 16
26 29 26 58 0 42 -21 68 -66 80 l-29 7 -3 114 c-2 95 -6 117 -23 141 -22 32
-46 38 -56 13z m125 -352 c4 -28 -24 -40 -45 -19 -14 13 -14 19 -3 32 18 22
44 15 48 -13z"/>
<path d="M2140 897 c-31 -15 -54 -60 -45 -87 9 -29 45 -60 70 -60 25 0 155
-128 155 -153 0 -10 11 -29 25 -42 62 -63 154 1 119 83 -15 36 -53 50 -95 35
-25 -10 -31 -6 -83 46 -52 53 -56 60 -47 84 24 62 -41 123 -99 94z m50 -53
c11 -12 10 -18 -3 -32 -16 -15 -18 -15 -34 0 -13 14 -14 20 -3 32 7 9 16 16
20 16 4 0 13 -7 20 -16z m233 -226 c7 -21 -4 -38 -23 -38 -23 0 -34 16 -26 35
7 18 43 20 49 3z"/>
<path d="M1300 727 c0 -133 0 -135 -25 -151 -44 -29 -29 -96 21 -96 50 0 55
18 52 203 -3 170 -3 172 -25 175 -23 3 -23 3 -23 -131z"/>
<path d="M1637 854 c-4 -4 -7 -82 -7 -174 0 -149 2 -169 18 -183 24 -22 55
-21 75 1 24 26 21 49 -8 76 -23 22 -25 29 -27 152 -3 121 -4 129 -23 132 -12
2 -24 0 -28 -4z"/>
<path d="M1467 844 c-4 -4 -7 -92 -7 -197 0 -174 -2 -191 -20 -214 -25 -33
-25 -54 1 -87 25 -31 57 -33 93 -5 32 25 35 68 6 94 -18 16 -20 33 -22 214 -3
189 -4 196 -23 199 -12 2 -24 0 -28 -4z m38 -454 c0 -22 -29 -18 -33 3 -3 14
1 18 15 15 10 -2 18 -10 18 -18z"/>
<path d="M937 743 c-4 -3 -7 -17 -7 -29 0 -30 -39 -67 -64 -60 -28 7 -81 -21
-95 -50 -24 -54 -9 -104 39 -129 44 -23 78 -19 111 14 30 30 39 80 20 111 -7
10 0 25 25 52 34 38 39 53 28 82 -6 16 -45 22 -57 9z m-49 -155 c17 -17 15
-53 -3 -68 -22 -19 -64 -4 -71 25 -4 15 -1 32 6 40 15 18 51 20 68 3z"/>
<path d="M1992 738 c-20 -20 -14 -40 25 -80 33 -34 36 -41 25 -58 -34 -55 4
-127 74 -137 76 -10 134 69 99 136 -18 36 -68 65 -96 56 -26 -8 -59 20 -59 50
0 25 -18 45 -40 45 -9 0 -21 -5 -28 -12z m179 -165 c12 -33 -19 -68 -54 -59
-31 7 -46 48 -26 72 18 22 70 14 80 -13z"/>
<path d="M1641 417 c-6 -6 -11 -31 -11 -55 0 -24 -4 -52 -10 -62 -21 -39 22
-80 61 -59 17 9 20 16 14 42 -4 18 -8 50 -9 72 -2 22 -3 45 -4 51 -3 17 -28
24 -41 11z"/>
<path d="M1307 413 c-4 -3 -7 -27 -7 -53 0 -25 -5 -51 -11 -57 -17 -17 -2 -61
22 -68 37 -12 80 51 49 70 -5 3 -10 31 -10 61 0 46 -3 54 -18 54 -10 0 -22 -3
-25 -7z"/>
<path d="M1458 179 c-38 -22 -12 -99 33 -99 21 0 59 33 59 53 0 43 -53 69 -92
46z"/>
</g>
</svg>
